<svg xmlns="http://www.w3.org/2000/svg" viewBox="148 43 567 189" width="300" height="100" preserveAspectRatio="xMidYMid meet" role="img" aria-label="Logo">
 
 <g fill="#96532d">
  <path d="M193 175.89 l0 -11.25 -9.46 -9.46 -9.46 -9.46 0 -4.95 0 -4.99 1.36 0 c1.07 0 2.81 1.50 9.07 7.76 4.27 4.27 7.90 7.76 8.10 7.76 0.24 0 0.39 -2.18 0.39 -4.80 l0 -4.80 -9.46 -9.12 -9.50 -9.07 0.15 -5.14 c0.15 -4.85 0.19 -5.14 1.21 -5.29 0.82 -0.15 4.95 3.69 18.82 17.46 9.80 9.70 18.09 17.80 18.52 17.99 0.73 0.44 3.10 -1.84 33.51 -31.91 8.10 -8 14.98 -14.60 15.28 -14.69 0.44 -0.10 0.58 4.07 0.53 17.65 l-0.10 17.75 -13.87 13.92 -13.87 13.87 0 11.06 0 11.01 -4.61 0 -4.61 0 0 -12.75 0 -12.75 13.77 -13.92 c15.13 -15.32 14.35 -14.21 14.35 -20.76 0 -1.75 -0.15 -3.35 -0.34 -3.54 -0.19 -0.19 -8.05 7.37 -17.46 16.78 l-17.12 17.12 0 14.89 0 14.94 -4.61 0 -4.61 0 0 -14.89 0 -14.89 -2.47 -2.33 c-4.51 -4.22 -4.32 -4.90 -4.32 14.89 l0 17.22 -4.61 0 -4.61 0 0 -11.30z"/>
  <path d="M241.01 177.78 l0 -9.36 9.94 -10.04 c5.48 -5.48 10.28 -9.99 10.72 -9.99 0.68 0 0.73 0.78 0.58 5.82 l-0.15 5.82 -5.92 5.96 -5.96 5.92 0 7.66 0 7.61 -4.61 0 -4.61 0 0 -9.41z"/>
  <path d="M666.30 176.86 l0 -4.07 -3.01 -0.58 c-4.51 -0.87 -9.84 -3.64 -12.80 -6.60 -2.23 -2.23 -5.53 -7.56 -5.53 -8.97 0 -0.29 1.70 -1.31 3.78 -2.23 2.04 -0.97 4.12 -1.94 4.56 -2.18 1.75 -0.92 2.62 -0.48 3.20 1.41 1.31 4.32 4.75 7.86 9.07 9.36 2.86 0.97 10.77 0.87 12.61 -0.15 5.67 -3.10 6.60 -9.21 1.89 -12.75 -1.26 -0.97 -4.85 -2.47 -10.28 -4.32 -10.57 -3.59 -14.55 -5.48 -17.46 -8.39 -3.69 -3.69 -4.70 -6.26 -4.70 -11.78 0 -4.12 0.15 -4.90 1.36 -7.23 2.67 -5.04 7.37 -8.39 14.21 -10.09 l3.15 -0.78 -0.10 -3.35 c-0.05 -1.79 0 -3.39 0.10 -3.49 0.10 -0.10 2.09 -0.29 4.46 -0.44 l4.22 -0.29 0 3.78 0 3.83 2.57 0.58 c6.16 1.45 11.98 5.87 15.03 11.54 l1.36 2.47 -1.12 0.58 c-2.91 1.60 -8.78 4.32 -9.31 4.32 -0.29 0 -0.87 -0.97 -1.21 -2.18 -0.82 -2.76 -4.27 -6.69 -6.74 -7.66 -3.20 -1.26 -6.01 -1.45 -9.36 -0.63 -1.70 0.44 -3.64 1.21 -4.32 1.65 -3.15 2.33 -3.73 7.13 -1.16 9.89 1.94 2.04 3.98 2.96 12.95 6.06 4.32 1.45 9.12 3.35 10.72 4.17 4.02 2.13 7.27 5.24 8.87 8.49 1.16 2.42 1.36 3.35 1.36 7.13 0 3.73 -0.19 4.75 -1.31 7.13 -2.57 5.48 -7.71 9.26 -14.84 10.91 l-3.44 0.82 -0.15 3.88 -0.15 3.93 -4.22 0.15 -4.27 0.15 0 -4.07z"/>
  <path d="M372.38 172.39 c-11.15 -2.23 -21.19 -10.18 -24.73 -19.59 -2.52 -6.74 -2.96 -14.74 -1.16 -21.39 2.72 -10.09 9.75 -17.80 19.98 -21.92 3.44 -1.36 4.36 -1.50 10.72 -1.75 8.39 -0.29 10.81 0.15 16.88 3.06 5.33 2.57 10.67 7.32 13.43 11.93 6.26 10.62 6.16 25.51 -0.34 35.50 -2.96 4.61 -7.32 8.39 -12.66 11.06 -7.42 3.64 -14.45 4.61 -22.11 3.10z m10.81 -9.99 c9.84 -2.09 15.91 -10.33 15.91 -21.63 0 -14.74 -8.68 -24.10 -21.68 -23.28 -11.30 0.68 -19.06 9.89 -19.06 22.65 0 14.79 11.49 25.07 24.83 22.26z"/>
  <path d="M439.98 172.39 c-7.23 -1.60 -13.58 -6.35 -16.58 -12.27 -3.06 -6.01 -3.10 -6.50 -3.35 -30.02 l-0.19 -21.48 6.35 0 6.30 0 0.15 21 c0.15 20.51 0.15 21 1.26 23.66 1.41 3.54 4.32 6.84 7.23 8.24 3.54 1.70 9.17 1.60 12.90 -0.19 3.30 -1.65 4.95 -3.64 6.30 -7.71 0.92 -2.86 1.02 -4.41 1.21 -24 l0.19 -21 5.53 0 5.53 0 0 20.08 c0 22.16 -0.29 25.12 -2.86 30.65 -2.57 5.48 -7.66 9.99 -13.87 12.27 -3.78 1.41 -11.74 1.79 -16.10 0.78z"/>
  <path d="M312.30 160.22 l0 -11.44 -5.43 -8.83 c-11.25 -18.23 -18.38 -30.41 -18.09 -30.84 0.19 -0.29 3.06 -0.48 6.69 -0.48 l6.45 0 4.32 7.66 c2.38 4.17 5.92 10.57 7.90 14.16 1.99 3.59 3.73 6.74 3.98 6.93 0.19 0.24 3.15 -4.56 6.55 -10.67 3.39 -6.06 7.08 -12.66 8.15 -14.55 l1.99 -3.54 6.45 0 c3.54 0 6.45 0.15 6.45 0.34 0 0.48 -2.38 4.56 -13.14 22.79 l-10.14 17.02 0 11.44 0 11.44 -6.06 0 -6.06 0 0 -11.44z"/>
  <path d="M498.51 145.58 c0 -24.30 0.05 -26.19 0.87 -26.87 0.44 -0.39 4.41 -2.76 8.83 -5.29 l8 -4.56 6.93 -0.15 6.89 -0.15 0 5.09 0 5.14 -9.70 0 -9.70 0 0 26.43 0 26.43 -6.06 0 -6.06 0 0 -26.09z"/>
  <path d="M537.16 171.33 c-0.19 -0.15 -0.34 -14.31 -0.34 -31.42 l0 -31.13 2.57 -0.34 c1.36 -0.15 4.12 -0.29 6.06 -0.29 l3.49 0 0 11.06 c0 6.06 0.15 11.83 0.29 12.85 l0.34 1.79 13.24 0 13.29 0 0.10 -12.46 0.15 -12.51 5.96 -0.15 5.92 -0.15 0 31.57 0 31.52 -6.06 0 -6.06 0 0 -13.82 0 -13.82 -13.43 0.10 -13.48 0.15 0.19 13.72 0.19 13.68 -6.06 0 c-3.35 0 -6.21 -0.15 -6.35 -0.34z"/>
  <path d="M599.38 140.24 l0 -31.47 8.39 -0.29 c9.26 -0.39 34.28 -0.44 34.28 -0.15 0 0.15 -0.78 2.42 -1.75 5.09 l-1.75 4.90 -12.22 0.05 c-6.69 0.05 -12.71 0.19 -13.38 0.39 l-1.21 0.34 0 7.23 0 7.27 11.06 0.15 c6.06 0.05 11.01 0.19 11.01 0.29 0 0.10 -0.87 2.23 -1.89 4.70 l-1.89 4.56 -9.26 0.15 -9.26 0.10 0 8.97 0 8.97 3.30 0.05 c1.79 0.05 8.15 0.19 14.11 0.39 l10.86 0.29 1.60 4.75 1.60 4.70 -21.82 0 -21.77 0 0 -31.42z"/>
  <path d="M193.44 119.44 l-19.11 -18.77 -0.15 -4.02 c-0.15 -3.98 -0.15 -4.02 1.16 -4.56 0.73 -0.24 1.70 -0.44 2.18 -0.34 1.07 0.19 40.69 39.33 40.69 40.20 0 0.39 -1.26 1.99 -2.81 3.49 l-2.81 2.81 -19.15 -18.82z"/>
  <path d="M219.09 122.35 c-2.28 -2.38 -9.80 -9.89 -16.73 -16.78 -10.52 -10.43 -12.46 -12.56 -11.88 -13.04 0.44 -0.39 2.72 -0.68 5.63 -0.78 l4.90 -0.15 11.40 11.15 11.40 11.15 8.24 -8.05 c4.51 -4.41 9.46 -9.31 10.96 -10.86 l2.72 -2.86 6.50 0 6.50 0 -17.22 17.22 c-9.46 9.46 -17.46 17.22 -17.75 17.22 -0.29 0 -2.38 -1.89 -4.66 -4.22z"/>
  <path d="M478.63 113.77 l0 -4.99 3.73 -0.34 c2.04 -0.15 8.29 -0.29 13.92 -0.29 l10.23 0 -1.21 0.97 c-0.68 0.53 -1.99 1.31 -2.91 1.75 -0.92 0.44 -3.78 2.18 -6.30 3.83 -6.55 4.27 -6.16 4.12 -12.07 4.12 l-5.38 0 0 -5.04z"/>
 </g>
</svg>